<mxfile host="app.diagrams.net" modified="2023-12-07T18:13:44.120Z" agent="Mozilla/5.0 (Windows NT 10.0; Win64; x64) AppleWebKit/537.36 (KHTML, like Gecko) Chrome/119.0.0.0 Safari/537.36" etag="Ui9OTTJ5hjdUt_2GArcW" version="22.1.7" type="device">
  <diagram name="Page-1" id="VM_rIkeGry3voHsvXuuq">
    <mxGraphModel dx="1900" dy="1657" grid="1" gridSize="10" guides="1" tooltips="1" connect="1" arrows="1" fold="1" page="1" pageScale="1" pageWidth="850" pageHeight="1100" math="0" shadow="0">
      <root>
        <mxCell id="0" />
        <mxCell id="1" parent="0" />
        <mxCell id="l4CVP8mkmjR8q4eA7_Ib-1" value="" style="triangle;whiteSpace=wrap;html=1;rotation=-90;fillColor=#e6d0de;strokeColor=#996185;gradientColor=#d5739d;" vertex="1" parent="1">
          <mxGeometry x="280" y="-100" width="280" height="560" as="geometry" />
        </mxCell>
        <mxCell id="l4CVP8mkmjR8q4eA7_Ib-2" value="" style="rounded=1;whiteSpace=wrap;html=1;" vertex="1" parent="1">
          <mxGeometry x="250" y="320" width="360" height="220" as="geometry" />
        </mxCell>
        <mxCell id="l4CVP8mkmjR8q4eA7_Ib-8" value="" style="rounded=1;whiteSpace=wrap;html=1;fillColor=#fa6800;strokeColor=#C73500;fontColor=#000000;" vertex="1" parent="1">
          <mxGeometry x="250" y="320" width="360" height="220" as="geometry" />
        </mxCell>
        <mxCell id="l4CVP8mkmjR8q4eA7_Ib-9" value="" style="rounded=1;whiteSpace=wrap;html=1;fillColor=#fa6800;strokeColor=#C73500;fontColor=#000000;" vertex="1" parent="1">
          <mxGeometry x="610" y="320" width="360" height="220" as="geometry" />
        </mxCell>
        <mxCell id="l4CVP8mkmjR8q4eA7_Ib-10" value="" style="rounded=1;whiteSpace=wrap;html=1;fillColor=#fa6800;strokeColor=#C73500;fontColor=#000000;" vertex="1" parent="1">
          <mxGeometry x="-110" y="320" width="360" height="220" as="geometry" />
        </mxCell>
        <mxCell id="l4CVP8mkmjR8q4eA7_Ib-11" value="" style="rounded=1;whiteSpace=wrap;html=1;fillColor=#cdeb8b;strokeColor=#36393d;" vertex="1" parent="1">
          <mxGeometry x="70" y="540" width="360" height="220" as="geometry" />
        </mxCell>
        <mxCell id="l4CVP8mkmjR8q4eA7_Ib-12" value="" style="rounded=1;whiteSpace=wrap;html=1;fillColor=#cdeb8b;strokeColor=#36393d;" vertex="1" parent="1">
          <mxGeometry x="430" y="540" width="360" height="220" as="geometry" />
        </mxCell>
        <mxCell id="l4CVP8mkmjR8q4eA7_Ib-13" value="Actor" style="shape=umlActor;verticalLabelPosition=bottom;verticalAlign=top;html=1;outlineConnect=0;" vertex="1" parent="1">
          <mxGeometry x="-90" y="20" width="30" height="60" as="geometry" />
        </mxCell>
        <mxCell id="l4CVP8mkmjR8q4eA7_Ib-14" value="Actor" style="shape=umlActor;verticalLabelPosition=bottom;verticalAlign=top;html=1;outlineConnect=0;" vertex="1" parent="1">
          <mxGeometry x="670" y="-10" width="30" height="60" as="geometry" />
        </mxCell>
        <mxCell id="l4CVP8mkmjR8q4eA7_Ib-15" value="Actor" style="shape=umlActor;verticalLabelPosition=bottom;verticalAlign=top;html=1;outlineConnect=0;" vertex="1" parent="1">
          <mxGeometry x="930" y="110" width="30" height="60" as="geometry" />
        </mxCell>
        <mxCell id="l4CVP8mkmjR8q4eA7_Ib-16" value="Actor" style="shape=umlActor;verticalLabelPosition=bottom;verticalAlign=top;html=1;outlineConnect=0;" vertex="1" parent="1">
          <mxGeometry x="770" y="80" width="30" height="60" as="geometry" />
        </mxCell>
        <mxCell id="l4CVP8mkmjR8q4eA7_Ib-17" value="Actor" style="shape=umlActor;verticalLabelPosition=bottom;verticalAlign=top;html=1;outlineConnect=0;" vertex="1" parent="1">
          <mxGeometry x="60" y="150" width="30" height="60" as="geometry" />
        </mxCell>
        <mxCell id="l4CVP8mkmjR8q4eA7_Ib-18" value="Actor" style="shape=umlActor;verticalLabelPosition=bottom;verticalAlign=top;html=1;outlineConnect=0;" vertex="1" parent="1">
          <mxGeometry x="300" y="-20" width="30" height="60" as="geometry" />
        </mxCell>
        <mxCell id="l4CVP8mkmjR8q4eA7_Ib-19" value="Actor" style="shape=umlActor;verticalLabelPosition=bottom;verticalAlign=top;html=1;outlineConnect=0;" vertex="1" parent="1">
          <mxGeometry x="200" y="30" width="30" height="60" as="geometry" />
        </mxCell>
        <mxCell id="l4CVP8mkmjR8q4eA7_Ib-20" value="Actor" style="shape=umlActor;verticalLabelPosition=bottom;verticalAlign=top;html=1;outlineConnect=0;" vertex="1" parent="1">
          <mxGeometry x="40" y="30" width="30" height="60" as="geometry" />
        </mxCell>
        <mxCell id="l4CVP8mkmjR8q4eA7_Ib-21" value="Actor" style="shape=umlActor;verticalLabelPosition=bottom;verticalAlign=top;html=1;outlineConnect=0;" vertex="1" parent="1">
          <mxGeometry x="860" y="240" width="30" height="60" as="geometry" />
        </mxCell>
        <mxCell id="l4CVP8mkmjR8q4eA7_Ib-22" value="Actor" style="shape=umlActor;verticalLabelPosition=bottom;verticalAlign=top;html=1;outlineConnect=0;" vertex="1" parent="1">
          <mxGeometry x="410" y="850" width="30" height="60" as="geometry" />
        </mxCell>
        <mxCell id="l4CVP8mkmjR8q4eA7_Ib-23" value="Actor" style="shape=umlActor;verticalLabelPosition=bottom;verticalAlign=top;html=1;outlineConnect=0;" vertex="1" parent="1">
          <mxGeometry x="410" y="850" width="30" height="60" as="geometry" />
        </mxCell>
        <mxCell id="l4CVP8mkmjR8q4eA7_Ib-24" value="Actor" style="shape=umlActor;verticalLabelPosition=bottom;verticalAlign=top;html=1;outlineConnect=0;" vertex="1" parent="1">
          <mxGeometry x="910" y="590" width="30" height="60" as="geometry" />
        </mxCell>
        <mxCell id="l4CVP8mkmjR8q4eA7_Ib-25" value="Actor" style="shape=umlActor;verticalLabelPosition=bottom;verticalAlign=top;html=1;outlineConnect=0;" vertex="1" parent="1">
          <mxGeometry x="900" y="700" width="30" height="60" as="geometry" />
        </mxCell>
        <mxCell id="l4CVP8mkmjR8q4eA7_Ib-26" value="Actor" style="shape=umlActor;verticalLabelPosition=bottom;verticalAlign=top;html=1;outlineConnect=0;" vertex="1" parent="1">
          <mxGeometry x="580" y="790" width="30" height="60" as="geometry" />
        </mxCell>
        <mxCell id="l4CVP8mkmjR8q4eA7_Ib-27" value="Actor" style="shape=umlActor;verticalLabelPosition=bottom;verticalAlign=top;html=1;outlineConnect=0;" vertex="1" parent="1">
          <mxGeometry x="415" y="780" width="30" height="60" as="geometry" />
        </mxCell>
        <mxCell id="l4CVP8mkmjR8q4eA7_Ib-28" value="Actor" style="shape=umlActor;verticalLabelPosition=bottom;verticalAlign=top;html=1;outlineConnect=0;" vertex="1" parent="1">
          <mxGeometry x="170" y="790" width="30" height="60" as="geometry" />
        </mxCell>
        <mxCell id="l4CVP8mkmjR8q4eA7_Ib-29" value="Actor" style="shape=umlActor;verticalLabelPosition=bottom;verticalAlign=top;html=1;outlineConnect=0;" vertex="1" parent="1">
          <mxGeometry y="750" width="30" height="60" as="geometry" />
        </mxCell>
        <mxCell id="l4CVP8mkmjR8q4eA7_Ib-30" value="Actor" style="shape=umlActor;verticalLabelPosition=bottom;verticalAlign=top;html=1;outlineConnect=0;" vertex="1" parent="1">
          <mxGeometry x="-70" y="630" width="30" height="60" as="geometry" />
        </mxCell>
        <mxCell id="l4CVP8mkmjR8q4eA7_Ib-32" value="&lt;b&gt;Enemies&lt;/b&gt;" style="text;html=1;strokeColor=none;fillColor=none;align=center;verticalAlign=middle;whiteSpace=wrap;rounded=0;" vertex="1" parent="1">
          <mxGeometry x="450" y="870" width="60" height="30" as="geometry" />
        </mxCell>
        <mxCell id="l4CVP8mkmjR8q4eA7_Ib-33" value="&lt;b&gt;Tech Knight HQ&lt;/b&gt;" style="text;html=1;strokeColor=none;fillColor=none;align=center;verticalAlign=middle;whiteSpace=wrap;rounded=0;" vertex="1" parent="1">
          <mxGeometry x="450" y="240" width="60" height="30" as="geometry" />
        </mxCell>
        <mxCell id="l4CVP8mkmjR8q4eA7_Ib-34" value="&lt;b&gt;Enemies&lt;/b&gt;" style="text;html=1;strokeColor=none;fillColor=none;align=center;verticalAlign=middle;whiteSpace=wrap;rounded=0;" vertex="1" parent="1">
          <mxGeometry x="460" y="-40" width="60" height="30" as="geometry" />
        </mxCell>
      </root>
    </mxGraphModel>
  </diagram>
</mxfile>
